<svg width="52" height="53" viewBox="0 0 52 53" fill="none" xmlns="http://www.w3.org/2000/svg">
<g clip-path="url(#clip0_242_37)">
<path d="M22.8611 14.1476C22.9555 13.9017 23.2252 13.763 23.4754 13.8551C23.7239 13.9467 23.8438 14.2255 23.7507 14.4714C23.6339 14.7813 23.5874 15.3038 23.5941 15.8996C23.6008 16.4912 23.6596 17.1408 23.742 17.6964C23.9428 19.0352 24.3139 20.2625 24.7817 21.1729C25.1948 20.6541 25.8 19.7936 26.0613 18.9037C26.1231 18.6936 26.3208 18.5434 26.5402 18.5499L26.6215 18.5573C26.8069 18.5927 26.9488 18.7416 26.984 18.9304C26.9956 18.9934 27.1206 19.7062 27.0806 20.6706C27.0411 21.6227 26.8394 22.8276 26.2062 23.8957C26.2949 24.1669 26.427 24.6479 26.4705 25.2668L26.4713 25.2673C26.5326 26.1505 26.4272 27.4937 25.5698 28.8938L25.5285 28.9612L25.5148 28.9574C25.365 29.1293 25.1107 29.1806 24.9113 29.0585C24.6888 28.922 24.6245 28.6274 24.7632 28.401C25.3367 27.4642 25.592 26.4542 25.5228 25.3896L25.4954 25.1014C25.4619 24.8263 25.4112 24.5933 25.3636 24.4172C25.3319 24.3002 25.3021 24.2083 25.2799 24.1461C25.2689 24.1151 25.2593 24.0913 25.2531 24.0759C25.25 24.0681 25.2476 24.0622 25.2462 24.0591L25.2459 24.0577L25.2432 24.0527C25.176 23.9016 25.1939 23.7268 25.2844 23.5889L25.3978 23.4076C25.8568 22.6251 26.0413 21.7248 26.1027 20.9512C25.5902 21.7388 25.0707 22.2828 25.0344 22.3217L25.0329 22.3242C24.9341 22.4257 24.7953 22.4814 24.6521 22.4711C24.5091 22.4608 24.3823 22.3881 24.3022 22.2683L24.1298 21.9944C23.3002 20.5981 22.9442 18.8255 22.7992 17.8634L22.7254 17.2903C22.6634 16.7248 22.6363 16.1839 22.6437 15.7013C22.6537 15.0603 22.7251 14.5138 22.8614 14.149L22.8611 14.1476Z" fill="#FFC3FF" stroke="#FFC3FF" stroke-width="0.2"/>
<mask id="path-2-outside-1_242_37" maskUnits="userSpaceOnUse" x="3.33737" y="4.06595" width="41.6341" height="43.6177" fill="black">
<rect fill="white" x="3.33737" y="4.06595" width="41.6341" height="43.6177"/>
<path d="M32.2639 11.9002C31.0045 11.5009 29.6561 11.3377 28.2646 11.4152C26.3585 11.5207 24.903 12.0356 24.3739 12.2525C21.7609 10.164 19.6407 9.06338 19.6147 9.05256C19.434 8.9588 19.2036 9.03405 19.1069 9.22665C19.0088 9.41337 19.0756 9.64525 19.2622 9.73752C20.0154 10.1244 22.5206 11.6111 25.0598 13.8336C26.5085 15.101 27.7467 16.4085 28.7368 17.7246C29.934 19.3096 30.7703 20.9084 31.2316 22.4804C31.5989 23.7346 31.7325 24.9894 31.6217 26.2145C31.5018 27.5557 31.0905 28.896 30.3973 30.1986C30.2992 30.3853 30.3636 30.6157 30.5429 30.712C30.7162 30.8046 30.9347 30.7407 31.0409 30.5673L31.0544 30.5452C32.4812 27.8662 32.7842 25.0754 31.9508 22.2412C31.4658 20.5853 30.5866 18.9044 29.3379 17.2491C28.3186 15.8931 27.0464 14.5479 25.5611 13.2497C25.3897 13.1008 25.2199 12.9545 25.0486 12.8108C25.7148 12.5832 26.8885 12.254 28.3124 12.1795C29.6148 12.1117 30.8676 12.2687 32.0397 12.64C33.2904 13.0374 34.4555 13.6866 35.5082 14.5729C34.6314 14.7847 33.3962 15.0492 32.8916 15.0343C32.7093 15.0308 32.5487 15.1573 32.5048 15.3383C32.4644 15.5214 32.5534 15.701 32.7203 15.7694C32.8549 15.8214 35.8687 17.0314 37.2231 17.2066C37.5399 17.7387 38.5971 19.6401 38.6127 21.4632C37.9441 21.2313 36.7132 20.8628 35.6378 20.8263C35.4653 20.8204 35.3122 20.9345 35.2566 21.0999C35.201 21.2653 35.2638 21.4424 35.4082 21.5342C36.0914 21.966 37.9296 23.2607 38.4688 24.1993C38.4163 24.6606 38.1518 26.5843 37.066 29.0953C36.8606 29.5745 36.6339 30.0459 36.3893 30.5147C35.1024 31.4709 33.7408 32.0855 32.3366 32.3463C31.2102 32.5557 30.0487 32.5425 28.8846 32.3046L28.8787 32.301C28.8728 32.2973 28.8631 32.2998 28.8549 32.2999C28.8513 32.2977 28.8431 32.2978 28.8393 32.2988C28.8333 32.2951 28.826 32.2991 28.8178 32.2992C28.8119 32.2955 28.8046 32.2995 28.7964 32.2996C28.7928 32.2974 28.7867 32.3021 28.7808 32.2984C28.7726 32.2985 28.7675 32.2988 28.7578 32.3013C28.7542 32.2991 28.7481 32.3038 28.7423 32.3053C28.7365 32.3068 28.7268 32.3093 28.7229 32.3103C28.7171 32.3118 28.7132 32.3129 28.7074 32.3144C28.7016 32.3159 28.6954 32.3206 28.688 32.3194C28.6822 32.3209 28.676 32.3256 28.671 32.3259C28.6687 32.3296 28.6613 32.3284 28.654 32.3323C28.6466 32.3363 28.642 32.3386 28.6347 32.3425C28.6324 32.3462 28.6274 32.3465 28.6227 32.3487C28.6154 32.3527 28.6093 32.3574 28.6035 32.3589C28.6012 32.3626 28.5961 32.3629 28.5915 32.3651C28.5877 32.3712 28.5781 32.3737 28.5743 32.3799C28.572 32.3836 28.5683 32.3897 28.5632 32.39C28.5594 32.3962 28.5521 32.4001 28.5475 32.4024C28.5437 32.4085 28.5415 32.4122 28.5341 32.4162L28.5244 32.4321L28.5108 32.4543L28.5048 32.4641L28.5025 32.4678L28.4988 32.4739C28.0858 33.0391 27.9158 33.6364 27.8562 34.1306C27.5325 33.4659 27.4144 32.54 27.3944 32.1171C27.3877 31.971 27.2998 31.8428 27.164 31.7901C26.6486 31.5878 26.2612 31.3894 26.0043 31.2574C25.8773 31.1932 25.794 31.1507 25.7283 31.1222C25.6772 31.1044 25.5488 31.0343 25.4 30.955C24.6196 30.5515 22.7988 29.6039 20.8075 29.3665C19.6636 29.2288 18.624 29.3443 17.7124 29.7089C16.6118 30.1504 15.6898 30.9582 14.9822 32.1137C14.3409 33.161 14.1039 34.4829 14.3124 35.8393C14.5243 37.2113 15.1805 38.4599 16.1576 39.3573L16.1635 39.361L16.1813 39.3719L16.1932 39.3791L16.2086 39.3886L16.224 39.398L16.2359 39.4053L16.2537 39.4162L16.2656 39.4234C16.2715 39.4271 16.2774 39.4307 16.2856 39.4307C16.2892 39.4328 16.2951 39.4365 16.2997 39.4342C16.3057 39.4379 16.3139 39.4378 16.3213 39.439C16.3272 39.4426 16.333 39.4411 16.3405 39.4423C16.3464 39.4459 16.3522 39.4444 16.3597 39.4456C16.3656 39.4492 16.3729 39.4452 16.3811 39.4452C16.3847 39.4474 16.3893 39.4451 16.3967 39.4463C16.4049 39.4462 16.4124 39.4474 16.4182 39.4459C16.4217 39.4481 16.4264 39.4459 16.4314 39.4456C16.4396 39.4455 16.4447 39.4452 16.4544 39.4427C16.4579 39.4449 16.4641 39.4402 16.4699 39.4387C16.4757 39.4372 16.4831 39.4384 16.4893 39.4337C16.4951 39.4322 16.5025 39.4333 16.5087 39.4287L16.5242 39.4246C16.5315 39.4207 16.5397 39.4206 16.5458 39.4159L16.5517 39.4144C17.3203 39.0941 18.1032 39.0276 18.8803 39.2128C18.6007 39.3018 18.3514 39.4213 18.1402 39.5691C17.7224 39.8626 17.5853 40.169 17.5635 40.2233C17.4967 40.3936 17.5535 40.5805 17.698 40.6775C19.2461 41.6948 21.0711 42.1852 22.979 42.0978C24.0232 42.0494 25.0884 41.8227 26.1402 41.429C27.2665 41.0067 28.387 40.3863 29.4724 39.5806C29.7388 39.3853 29.9988 39.1845 30.2579 38.9798L30.2601 38.9761C32.0108 37.5822 33.5521 36.0214 34.8452 34.3254C35.3488 33.6653 35.8177 32.9823 36.2452 32.2841C36.5169 31.8403 36.7732 31.3872 37.0139 30.9329L37.0237 30.9169C37.2945 30.3999 37.5449 29.8738 37.776 29.3393C39.0633 26.3501 39.2321 24.2072 39.2375 24.1158C39.2411 24.0487 39.229 23.9805 39.1992 23.9199C38.8529 23.2228 37.9616 22.4303 37.1822 21.8279C38.08 22.0532 38.817 22.3439 38.8253 22.349C38.9347 22.394 39.0608 22.38 39.1627 22.3173C39.2635 22.254 39.3348 22.1455 39.3441 22.0211C39.4594 20.9458 39.2294 19.7046 38.6592 18.3397C38.2393 17.3338 37.7934 16.645 37.7736 16.616C37.7107 16.5217 37.606 16.461 37.4935 16.4529C36.8823 16.4201 35.5363 15.9812 34.4223 15.5762C35.3671 15.3891 36.3284 15.1378 36.3924 15.1212C36.5262 15.0865 36.6346 14.9788 36.6721 14.8429C36.7104 14.7058 36.671 14.565 36.571 14.47C35.2998 13.2589 33.8533 12.3901 32.2781 11.8936L32.2639 11.9002ZM29.8583 38.3398C28.2997 38.7781 26.2659 38.5941 24.1196 37.8156C22.255 37.1369 20.4443 36.0501 19.4008 34.9733C19.2582 34.8252 19.0219 34.8276 18.8708 34.9784C18.7205 35.128 18.7153 35.3682 18.859 35.5171C19.9943 36.6838 21.8593 37.8123 23.8481 38.5332C24.9384 38.9288 26.0058 39.1835 27.0198 39.2856C27.5515 39.339 28.0607 39.3517 28.5437 39.3196C26.7068 40.5745 24.8252 41.2527 22.9549 41.3395C21.3477 41.415 19.8026 41.0401 18.4579 40.2556C18.4982 40.2245 18.5431 40.1912 18.5938 40.1563C18.8607 39.9868 19.3644 39.7848 20.2446 39.7779C20.4076 39.778 20.5534 39.6678 20.608 39.512C20.6622 39.3542 20.614 39.1827 20.4815 39.0847C20.4601 39.0716 20.0044 38.7317 19.2578 38.5179C18.3522 38.2574 17.4029 38.2947 16.5001 38.6157C15.7332 37.8435 15.2204 36.8112 15.0439 35.6823C14.8634 34.512 15.0624 33.3747 15.6058 32.4872C16.2223 31.4805 17.0117 30.7774 17.9565 30.4011C18.7475 30.0843 19.6646 29.985 20.6842 30.1074C22.5449 30.329 24.2881 31.2326 25.0321 31.6188C25.2187 31.7162 25.3398 31.7768 25.4233 31.811C25.4579 31.8238 25.5459 31.8692 25.641 31.919C25.8607 32.0316 26.2068 32.2097 26.6521 32.3962C26.6763 32.6442 26.7253 33.0596 26.8383 33.5091C27.0841 34.5114 27.4958 35.1709 28.0566 35.4618C28.1871 35.5283 28.3436 35.5125 28.4624 35.4197C28.5012 35.391 28.532 35.3541 28.5553 35.316C28.6072 35.2312 28.6268 35.1299 28.6047 35.0302C28.6025 35.0204 28.4081 34.014 28.9643 33.087C30.138 33.2987 31.3101 33.2998 32.4492 33.083C33.5251 32.8815 34.5742 32.4896 35.5883 31.9123C35.1743 32.5883 34.719 33.2493 34.2313 33.8886C32.9946 35.506 31.5242 36.999 29.86 38.3341L29.8583 38.3398Z"/>
</mask>
<path d="M32.2639 11.9002C31.0045 11.5009 29.6561 11.3377 28.2646 11.4152C26.3585 11.5207 24.903 12.0356 24.3739 12.2525C21.7609 10.164 19.6407 9.06338 19.6147 9.05256C19.434 8.9588 19.2036 9.03405 19.1069 9.22665C19.0088 9.41337 19.0756 9.64525 19.2622 9.73752C20.0154 10.1244 22.5206 11.6111 25.0598 13.8336C26.5085 15.101 27.7467 16.4085 28.7368 17.7246C29.934 19.3096 30.7703 20.9084 31.2316 22.4804C31.5989 23.7346 31.7325 24.9894 31.6217 26.2145C31.5018 27.5557 31.0905 28.896 30.3973 30.1986C30.2992 30.3853 30.3636 30.6157 30.5429 30.712C30.7162 30.8046 30.9347 30.7407 31.0409 30.5673L31.0544 30.5452C32.4812 27.8662 32.7842 25.0754 31.9508 22.2412C31.4658 20.5853 30.5866 18.9044 29.3379 17.2491C28.3186 15.8931 27.0464 14.5479 25.5611 13.2497C25.3897 13.1008 25.2199 12.9545 25.0486 12.8108C25.7148 12.5832 26.8885 12.254 28.3124 12.1795C29.6148 12.1117 30.8676 12.2687 32.0397 12.64C33.2904 13.0374 34.4555 13.6866 35.5082 14.5729C34.6314 14.7847 33.3962 15.0492 32.8916 15.0343C32.7093 15.0308 32.5487 15.1573 32.5048 15.3383C32.4644 15.5214 32.5534 15.701 32.7203 15.7694C32.8549 15.8214 35.8687 17.0314 37.2231 17.2066C37.5399 17.7387 38.5971 19.6401 38.6127 21.4632C37.9441 21.2313 36.7132 20.8628 35.6378 20.8263C35.4653 20.8204 35.3122 20.9345 35.2566 21.0999C35.201 21.2653 35.2638 21.4424 35.4082 21.5342C36.0914 21.966 37.9296 23.2607 38.4688 24.1993C38.4163 24.6606 38.1518 26.5843 37.066 29.0953C36.8606 29.5745 36.6339 30.0459 36.3893 30.5147C35.1024 31.4709 33.7408 32.0855 32.3366 32.3463C31.2102 32.5557 30.0487 32.5425 28.8846 32.3046L28.8787 32.301C28.8728 32.2973 28.8631 32.2998 28.8549 32.2999C28.8513 32.2977 28.8431 32.2978 28.8393 32.2988C28.8333 32.2951 28.826 32.2991 28.8178 32.2992C28.8119 32.2955 28.8046 32.2995 28.7964 32.2996C28.7928 32.2974 28.7867 32.3021 28.7808 32.2984C28.7726 32.2985 28.7675 32.2988 28.7578 32.3013C28.7542 32.2991 28.7481 32.3038 28.7423 32.3053C28.7365 32.3068 28.7268 32.3093 28.7229 32.3103C28.7171 32.3118 28.7132 32.3129 28.7074 32.3144C28.7016 32.3159 28.6954 32.3206 28.688 32.3194C28.6822 32.3209 28.676 32.3256 28.671 32.3259C28.6687 32.3296 28.6613 32.3284 28.654 32.3323C28.6466 32.3363 28.642 32.3386 28.6347 32.3425C28.6324 32.3462 28.6274 32.3465 28.6227 32.3487C28.6154 32.3527 28.6093 32.3574 28.6035 32.3589C28.6012 32.3626 28.5961 32.3629 28.5915 32.3651C28.5877 32.3712 28.5781 32.3737 28.5743 32.3799C28.572 32.3836 28.5683 32.3897 28.5632 32.39C28.5594 32.3962 28.5521 32.4001 28.5475 32.4024C28.5437 32.4085 28.5415 32.4122 28.5341 32.4162L28.5244 32.4321L28.5108 32.4543L28.5048 32.4641L28.5025 32.4678L28.4988 32.4739C28.0858 33.0391 27.9158 33.6364 27.8562 34.1306C27.5325 33.4659 27.4144 32.54 27.3944 32.1171C27.3877 31.971 27.2998 31.8428 27.164 31.7901C26.6486 31.5878 26.2612 31.3894 26.0043 31.2574C25.8773 31.1932 25.794 31.1507 25.7283 31.1222C25.6772 31.1044 25.5488 31.0343 25.4 30.955C24.6196 30.5515 22.7988 29.6039 20.8075 29.3665C19.6636 29.2288 18.624 29.3443 17.7124 29.7089C16.6118 30.1504 15.6898 30.9582 14.9822 32.1137C14.3409 33.161 14.1039 34.4829 14.3124 35.8393C14.5243 37.2113 15.1805 38.4599 16.1576 39.3573L16.1635 39.361L16.1813 39.3719L16.1932 39.3791L16.2086 39.3886L16.224 39.398L16.2359 39.4053L16.2537 39.4162L16.2656 39.4234C16.2715 39.4271 16.2774 39.4307 16.2856 39.4307C16.2892 39.4328 16.2951 39.4365 16.2997 39.4342C16.3057 39.4379 16.3139 39.4378 16.3213 39.439C16.3272 39.4426 16.333 39.4411 16.3405 39.4423C16.3464 39.4459 16.3522 39.4444 16.3597 39.4456C16.3656 39.4492 16.3729 39.4452 16.3811 39.4452C16.3847 39.4474 16.3893 39.4451 16.3967 39.4463C16.4049 39.4462 16.4124 39.4474 16.4182 39.4459C16.4217 39.4481 16.4264 39.4459 16.4314 39.4456C16.4396 39.4455 16.4447 39.4452 16.4544 39.4427C16.4579 39.4449 16.4641 39.4402 16.4699 39.4387C16.4757 39.4372 16.4831 39.4384 16.4893 39.4337C16.4951 39.4322 16.5025 39.4333 16.5087 39.4287L16.5242 39.4246C16.5315 39.4207 16.5397 39.4206 16.5458 39.4159L16.5517 39.4144C17.3203 39.0941 18.1032 39.0276 18.8803 39.2128C18.6007 39.3018 18.3514 39.4213 18.1402 39.5691C17.7224 39.8626 17.5853 40.169 17.5635 40.2233C17.4967 40.3936 17.5535 40.5805 17.698 40.6775C19.2461 41.6948 21.0711 42.1852 22.979 42.0978C24.0232 42.0494 25.0884 41.8227 26.1402 41.429C27.2665 41.0067 28.387 40.3863 29.4724 39.5806C29.7388 39.3853 29.9988 39.1845 30.2579 38.9798L30.2601 38.9761C32.0108 37.5822 33.5521 36.0214 34.8452 34.3254C35.3488 33.6653 35.8177 32.9823 36.2452 32.2841C36.5169 31.8403 36.7732 31.3872 37.0139 30.9329L37.0237 30.9169C37.2945 30.3999 37.5449 29.8738 37.776 29.3393C39.0633 26.3501 39.2321 24.2072 39.2375 24.1158C39.2411 24.0487 39.229 23.9805 39.1992 23.9199C38.8529 23.2228 37.9616 22.4303 37.1822 21.8279C38.08 22.0532 38.817 22.3439 38.8253 22.349C38.9347 22.394 39.0608 22.38 39.1627 22.3173C39.2635 22.254 39.3348 22.1455 39.3441 22.0211C39.4594 20.9458 39.2294 19.7046 38.6592 18.3397C38.2393 17.3338 37.7934 16.645 37.7736 16.616C37.7107 16.5217 37.606 16.461 37.4935 16.4529C36.8823 16.4201 35.5363 15.9812 34.4223 15.5762C35.3671 15.3891 36.3284 15.1378 36.3924 15.1212C36.5262 15.0865 36.6346 14.9788 36.6721 14.8429C36.7104 14.7058 36.671 14.565 36.571 14.47C35.2998 13.2589 33.8533 12.3901 32.2781 11.8936L32.2639 11.9002ZM29.8583 38.3398C28.2997 38.7781 26.2659 38.5941 24.1196 37.8156C22.255 37.1369 20.4443 36.0501 19.4008 34.9733C19.2582 34.8252 19.0219 34.8276 18.8708 34.9784C18.7205 35.128 18.7153 35.3682 18.859 35.5171C19.9943 36.6838 21.8593 37.8123 23.8481 38.5332C24.9384 38.9288 26.0058 39.1835 27.0198 39.2856C27.5515 39.339 28.0607 39.3517 28.5437 39.3196C26.7068 40.5745 24.8252 41.2527 22.9549 41.3395C21.3477 41.415 19.8026 41.0401 18.4579 40.2556C18.4982 40.2245 18.5431 40.1912 18.5938 40.1563C18.8607 39.9868 19.3644 39.7848 20.2446 39.7779C20.4076 39.778 20.5534 39.6678 20.608 39.512C20.6622 39.3542 20.614 39.1827 20.4815 39.0847C20.4601 39.0716 20.0044 38.7317 19.2578 38.5179C18.3522 38.2574 17.4029 38.2947 16.5001 38.6157C15.7332 37.8435 15.2204 36.8112 15.0439 35.6823C14.8634 34.512 15.0624 33.3747 15.6058 32.4872C16.2223 31.4805 17.0117 30.7774 17.9565 30.4011C18.7475 30.0843 19.6646 29.985 20.6842 30.1074C22.5449 30.329 24.2881 31.2326 25.0321 31.6188C25.2187 31.7162 25.3398 31.7768 25.4233 31.811C25.4579 31.8238 25.5459 31.8692 25.641 31.919C25.8607 32.0316 26.2068 32.2097 26.6521 32.3962C26.6763 32.6442 26.7253 33.0596 26.8383 33.5091C27.0841 34.5114 27.4958 35.1709 28.0566 35.4618C28.1871 35.5283 28.3436 35.5125 28.4624 35.4197C28.5012 35.391 28.532 35.3541 28.5553 35.316C28.6072 35.2312 28.6268 35.1299 28.6047 35.0302C28.6025 35.0204 28.4081 34.014 28.9643 33.087C30.138 33.2987 31.3101 33.2998 32.4492 33.083C33.5251 32.8815 34.5742 32.4896 35.5883 31.9123C35.1743 32.5883 34.719 33.2493 34.2313 33.8886C32.9946 35.506 31.5242 36.999 29.86 38.3341L29.8583 38.3398Z" fill="#FFC3FF"/>
<path d="M32.2639 11.9002C31.0045 11.5009 29.6561 11.3377 28.2646 11.4152C26.3585 11.5207 24.903 12.0356 24.3739 12.2525C21.7609 10.164 19.6407 9.06338 19.6147 9.05256C19.434 8.9588 19.2036 9.03405 19.1069 9.22665C19.0088 9.41337 19.0756 9.64525 19.2622 9.73752C20.0154 10.1244 22.5206 11.6111 25.0598 13.8336C26.5085 15.101 27.7467 16.4085 28.7368 17.7246C29.934 19.3096 30.7703 20.9084 31.2316 22.4804C31.5989 23.7346 31.7325 24.9894 31.6217 26.2145C31.5018 27.5557 31.0905 28.896 30.3973 30.1986C30.2992 30.3853 30.3636 30.6157 30.5429 30.712C30.7162 30.8046 30.9347 30.7407 31.0409 30.5673L31.0544 30.5452C32.4812 27.8662 32.7842 25.0754 31.9508 22.2412C31.4658 20.5853 30.5866 18.9044 29.3379 17.2491C28.3186 15.8931 27.0464 14.5479 25.5611 13.2497C25.3897 13.1008 25.2199 12.9545 25.0486 12.8108C25.7148 12.5832 26.8885 12.254 28.3124 12.1795C29.6148 12.1117 30.8676 12.2687 32.0397 12.64C33.2904 13.0374 34.4555 13.6866 35.5082 14.5729C34.6314 14.7847 33.3962 15.0492 32.8916 15.0343C32.7093 15.0308 32.5487 15.1573 32.5048 15.3383C32.4644 15.5214 32.5534 15.701 32.7203 15.7694C32.8549 15.8214 35.8687 17.0314 37.2231 17.2066C37.5399 17.7387 38.5971 19.6401 38.6127 21.4632C37.9441 21.2313 36.7132 20.8628 35.6378 20.8263C35.4653 20.8204 35.3122 20.9345 35.2566 21.0999C35.201 21.2653 35.2638 21.4424 35.4082 21.5342C36.0914 21.966 37.9296 23.2607 38.4688 24.1993C38.4163 24.6606 38.1518 26.5843 37.066 29.0953C36.8606 29.5745 36.6339 30.0459 36.3893 30.5147C35.1024 31.4709 33.7408 32.0855 32.3366 32.3463C31.2102 32.5557 30.0487 32.5425 28.8846 32.3046L28.8787 32.301C28.8728 32.2973 28.8631 32.2998 28.8549 32.2999C28.8513 32.2977 28.8431 32.2978 28.8393 32.2988C28.8333 32.2951 28.826 32.2991 28.8178 32.2992C28.8119 32.2955 28.8046 32.2995 28.7964 32.2996C28.7928 32.2974 28.7867 32.3021 28.7808 32.2984C28.7726 32.2985 28.7675 32.2988 28.7578 32.3013C28.7542 32.2991 28.7481 32.3038 28.7423 32.3053C28.7365 32.3068 28.7268 32.3093 28.7229 32.3103C28.7171 32.3118 28.7132 32.3129 28.7074 32.3144C28.7016 32.3159 28.6954 32.3206 28.688 32.3194C28.6822 32.3209 28.676 32.3256 28.671 32.3259C28.6687 32.3296 28.6613 32.3284 28.654 32.3323C28.6466 32.3363 28.642 32.3386 28.6347 32.3425C28.6324 32.3462 28.6274 32.3465 28.6227 32.3487C28.6154 32.3527 28.6093 32.3574 28.6035 32.3589C28.6012 32.3626 28.5961 32.3629 28.5915 32.3651C28.5877 32.3712 28.5781 32.3737 28.5743 32.3799C28.572 32.3836 28.5683 32.3897 28.5632 32.39C28.5594 32.3962 28.5521 32.4001 28.5475 32.4024C28.5437 32.4085 28.5415 32.4122 28.5341 32.4162L28.5244 32.4321L28.5108 32.4543L28.5048 32.4641L28.5025 32.4678L28.4988 32.4739C28.0858 33.0391 27.9158 33.6364 27.8562 34.1306C27.5325 33.4659 27.4144 32.54 27.3944 32.1171C27.3877 31.971 27.2998 31.8428 27.164 31.7901C26.6486 31.5878 26.2612 31.3894 26.0043 31.2574C25.8773 31.1932 25.794 31.1507 25.7283 31.1222C25.6772 31.1044 25.5488 31.0343 25.4 30.955C24.6196 30.5515 22.7988 29.6039 20.8075 29.3665C19.6636 29.2288 18.624 29.3443 17.7124 29.7089C16.6118 30.1504 15.6898 30.9582 14.9822 32.1137C14.3409 33.161 14.1039 34.4829 14.3124 35.8393C14.5243 37.2113 15.1805 38.4599 16.1576 39.3573L16.1635 39.361L16.1813 39.3719L16.1932 39.3791L16.2086 39.3886L16.224 39.398L16.2359 39.4053L16.2537 39.4162L16.2656 39.4234C16.2715 39.4271 16.2774 39.4307 16.2856 39.4307C16.2892 39.4328 16.2951 39.4365 16.2997 39.4342C16.3057 39.4379 16.3139 39.4378 16.3213 39.439C16.3272 39.4426 16.333 39.4411 16.3405 39.4423C16.3464 39.4459 16.3522 39.4444 16.3597 39.4456C16.3656 39.4492 16.3729 39.4452 16.3811 39.4452C16.3847 39.4474 16.3893 39.4451 16.3967 39.4463C16.4049 39.4462 16.4124 39.4474 16.4182 39.4459C16.4217 39.4481 16.4264 39.4459 16.4314 39.4456C16.4396 39.4455 16.4447 39.4452 16.4544 39.4427C16.4579 39.4449 16.4641 39.4402 16.4699 39.4387C16.4757 39.4372 16.4831 39.4384 16.4893 39.4337C16.4951 39.4322 16.5025 39.4333 16.5087 39.4287L16.5242 39.4246C16.5315 39.4207 16.5397 39.4206 16.5458 39.4159L16.5517 39.4144C17.3203 39.0941 18.1032 39.0276 18.8803 39.2128C18.6007 39.3018 18.3514 39.4213 18.1402 39.5691C17.7224 39.8626 17.5853 40.169 17.5635 40.2233C17.4967 40.3936 17.5535 40.5805 17.698 40.6775C19.2461 41.6948 21.0711 42.1852 22.979 42.0978C24.0232 42.0494 25.0884 41.8227 26.1402 41.429C27.2665 41.0067 28.387 40.3863 29.4724 39.5806C29.7388 39.3853 29.9988 39.1845 30.2579 38.9798L30.2601 38.9761C32.0108 37.5822 33.5521 36.0214 34.8452 34.3254C35.3488 33.6653 35.8177 32.9823 36.2452 32.2841C36.5169 31.8403 36.7732 31.3872 37.0139 30.9329L37.0237 30.9169C37.2945 30.3999 37.5449 29.8738 37.776 29.3393C39.0633 26.3501 39.2321 24.2072 39.2375 24.1158C39.2411 24.0487 39.229 23.9805 39.1992 23.9199C38.8529 23.2228 37.9616 22.4303 37.1822 21.8279C38.08 22.0532 38.817 22.3439 38.8253 22.349C38.9347 22.394 39.0608 22.38 39.1627 22.3173C39.2635 22.254 39.3348 22.1455 39.3441 22.0211C39.4594 20.9458 39.2294 19.7046 38.6592 18.3397C38.2393 17.3338 37.7934 16.645 37.7736 16.616C37.7107 16.5217 37.606 16.461 37.4935 16.4529C36.8823 16.4201 35.5363 15.9812 34.4223 15.5762C35.3671 15.3891 36.3284 15.1378 36.3924 15.1212C36.5262 15.0865 36.6346 14.9788 36.6721 14.8429C36.7104 14.7058 36.671 14.565 36.571 14.47C35.2998 13.2589 33.8533 12.3901 32.2781 11.8936L32.2639 11.9002ZM29.8583 38.3398C28.2997 38.7781 26.2659 38.5941 24.1196 37.8156C22.255 37.1369 20.4443 36.0501 19.4008 34.9733C19.2582 34.8252 19.0219 34.8276 18.8708 34.9784C18.7205 35.128 18.7153 35.3682 18.859 35.5171C19.9943 36.6838 21.8593 37.8123 23.8481 38.5332C24.9384 38.9288 26.0058 39.1835 27.0198 39.2856C27.5515 39.339 28.0607 39.3517 28.5437 39.3196C26.7068 40.5745 24.8252 41.2527 22.9549 41.3395C21.3477 41.415 19.8026 41.0401 18.4579 40.2556C18.4982 40.2245 18.5431 40.1912 18.5938 40.1563C18.8607 39.9868 19.3644 39.7848 20.2446 39.7779C20.4076 39.778 20.5534 39.6678 20.608 39.512C20.6622 39.3542 20.614 39.1827 20.4815 39.0847C20.4601 39.0716 20.0044 38.7317 19.2578 38.5179C18.3522 38.2574 17.4029 38.2947 16.5001 38.6157C15.7332 37.8435 15.2204 36.8112 15.0439 35.6823C14.8634 34.512 15.0624 33.3747 15.6058 32.4872C16.2223 31.4805 17.0117 30.7774 17.9565 30.4011C18.7475 30.0843 19.6646 29.985 20.6842 30.1074C22.5449 30.329 24.2881 31.2326 25.0321 31.6188C25.2187 31.7162 25.3398 31.7768 25.4233 31.811C25.4579 31.8238 25.5459 31.8692 25.641 31.919C25.8607 32.0316 26.2068 32.2097 26.6521 32.3962C26.6763 32.6442 26.7253 33.0596 26.8383 33.5091C27.0841 34.5114 27.4958 35.1709 28.0566 35.4618C28.1871 35.5283 28.3436 35.5125 28.4624 35.4197C28.5012 35.391 28.532 35.3541 28.5553 35.316C28.6072 35.2312 28.6268 35.1299 28.6047 35.0302C28.6025 35.0204 28.4081 34.014 28.9643 33.087C30.138 33.2987 31.3101 33.2998 32.4492 33.083C33.5251 32.8815 34.5742 32.4896 35.5883 31.9123C35.1743 32.5883 34.719 33.2493 34.2313 33.8886C32.9946 35.506 31.5242 36.999 29.86 38.3341L29.8583 38.3398Z" stroke="#FFC3FF" stroke-width="0.4" mask="url(#path-2-outside-1_242_37)"/>
</g>
<defs>
<clipPath id="clip0_242_37">
<rect width="40.5888" height="35.054" fill="white" transform="translate(0 34.6146) rotate(-58.5189)"/>
</clipPath>
</defs>
</svg>
