<svg width="40" height="44" viewBox="0 0 40 44" fill="none" xmlns="http://www.w3.org/2000/svg">
<path d="M10.5527 9.896C13.6039 7.4776 17.5775 6.22359 21.749 6.70654C25.9219 7.18965 29.5034 9.31826 31.9219 12.3706C34.3403 15.4217 35.5943 19.3954 35.1113 23.5669C34.6282 27.7399 32.4987 31.3213 29.4463 33.7397C26.3951 36.1581 22.4215 37.4122 18.25 36.9292C14.0772 36.446 10.4965 34.3165 8.07812 31.2642C5.65972 28.213 4.4057 24.2394 4.88867 20.0679C5.37173 15.8967 7.50205 12.3143 10.5527 9.896ZM21.6357 7.5376C17.6983 7.08634 13.9504 8.27157 11.0742 10.5503C8.19641 12.8318 6.18669 16.2097 5.72656 20.146L5.72168 20.1821C5.27025 24.1199 6.45503 27.8679 8.73535 30.7456C11.0154 33.6234 14.3946 35.6332 18.3311 36.0933H18.332C18.3432 36.0947 18.3541 36.0968 18.3652 36.0981L18.7334 36.1353C22.5361 36.4742 26.1408 35.2936 28.9287 33.0845C31.8066 30.8044 33.8173 27.4252 34.2773 23.4888V23.4878L34.2812 23.4536C34.7325 19.516 33.5479 15.7677 31.2676 12.8901C28.986 10.0124 25.6082 8.0025 21.6719 7.54248C21.6589 7.54103 21.647 7.53998 21.6357 7.53857V7.5376ZM12.3271 12.1343C14.8016 10.1733 18.021 9.15499 21.4023 9.5415L21.4414 9.54541H21.4424C24.8224 9.94196 27.7251 11.6705 29.6846 14.145C31.6455 16.6194 32.6638 19.8389 32.2773 23.2202C32.2767 23.2264 32.2761 23.233 32.2754 23.2397C32.2747 23.2464 32.2732 23.2537 32.2725 23.2603C31.8759 26.6403 30.1474 29.5425 27.6729 31.5034C25.1941 33.4673 21.9663 34.4855 18.5791 34.0933C15.1906 33.701 12.2807 31.9714 10.3154 29.4927C8.35164 27.014 7.33339 23.786 7.72559 20.3989C8.1178 17.0074 9.84833 14.0982 12.3271 12.1343ZM21.1885 10.3618C18.0775 10.0381 15.1225 10.9854 12.8447 12.7905C10.6836 14.5036 9.1343 16.9887 8.64355 19.8901L8.55957 20.4761L8.55566 20.5112C8.19502 23.6651 9.14346 26.6679 10.9707 28.9731C12.798 31.2784 15.5039 32.8875 18.6562 33.2583H18.6572C18.6619 33.2589 18.6651 33.2595 18.6729 33.2603C18.678 33.2607 18.6844 33.2617 18.6914 33.2632C21.845 33.6236 24.8472 32.6743 27.1523 30.8472C29.462 29.017 31.073 26.3044 31.4395 23.145C31.8058 19.984 30.8569 16.9757 29.0254 14.6646C27.1952 12.3549 24.4817 10.7439 21.3223 10.3774L21.1885 10.3618ZM26.0498 15.6118C26.5936 15.6119 27.1376 15.8187 27.5508 16.2319C27.9639 16.6451 28.1689 17.1877 28.1689 17.73C28.1704 18.2739 27.9644 18.8183 27.5527 19.2329L19.4727 27.3765L19.4736 27.3774C19.466 27.387 19.4568 27.3962 19.4502 27.4028C19.037 27.816 18.493 28.0229 17.9492 28.0229C17.4054 28.0229 16.8605 27.8161 16.4473 27.4028L12.4492 23.4048C12.0361 22.9916 11.8292 22.4475 11.8291 21.9038C11.8291 21.36 12.036 20.8151 12.4492 20.4019C12.8485 20.0027 13.3721 19.7979 13.9004 19.7856V19.7827H13.9502C14.4939 19.7827 15.038 19.9889 15.4512 20.4019L17.7168 22.6675C17.771 22.7217 17.844 22.7495 17.915 22.7495C17.9873 22.7495 18.0581 22.7217 18.1123 22.6675L24.5488 16.2319C24.962 15.8188 25.506 15.6118 26.0498 15.6118ZM26.0508 16.4536C25.7211 16.4537 25.3921 16.5782 25.1436 16.8267L18.709 23.2612C18.4903 23.4799 18.2028 23.5884 17.916 23.5884C17.6294 23.5883 17.3426 23.4797 17.124 23.2612L14.8584 20.9956C14.6082 20.7468 14.2799 20.6226 13.9502 20.6226H13.9092C13.5935 20.6325 13.2826 20.756 13.043 20.9956C12.7943 21.2457 12.67 21.5732 12.6699 21.9028C12.6699 22.2327 12.7943 22.5624 13.043 22.811L17.041 26.8101C17.2912 27.0587 17.6195 27.1831 17.9492 27.1831C18.2788 27.183 18.6079 27.0584 18.8564 26.8101C18.8611 26.8054 18.8675 26.7989 18.875 26.7925L26.959 18.6421C27.2075 18.3921 27.3319 18.063 27.332 17.7319C27.332 17.4036 27.2077 17.0753 26.959 16.8267C26.7088 16.5779 26.3805 16.4536 26.0508 16.4536Z" fill="#193561" stroke="#193561" stroke-width="0.1"/>
</svg>
