<svg width="38" height="43" viewBox="0 0 38 43" fill="none" xmlns="http://www.w3.org/2000/svg">
<path d="M19.058 37.9807C17.5694 37.9807 16.1518 37.3362 15.1689 36.21C14.1874 35.0867 13.7328 33.5933 13.9203 32.1114L14.3351 27.8184C14.3635 27.5255 14.622 27.3111 14.9132 27.3397C15.2044 27.3683 15.416 27.6284 15.3891 27.9213L14.9743 32.223C14.9743 32.2287 14.9729 32.2345 14.9729 32.2402C14.8209 33.4221 15.1831 34.6139 15.9658 35.5086C16.7442 36.4032 17.8735 36.9163 19.0581 36.9163C20.2428 36.9163 21.3706 36.4032 22.1533 35.5071C22.9359 34.6125 23.2967 33.4206 23.1462 32.2387C23.1448 32.233 23.1448 32.2273 23.1448 32.2216L22.73 27.9199C22.7016 27.6269 22.9147 27.3668 23.2059 27.3382C23.4956 27.3097 23.7556 27.524 23.784 27.817L24.1987 32.1099C24.3862 33.5919 23.9317 35.0868 22.9502 36.2086C21.9644 37.3347 20.5466 37.9807 19.058 37.9807Z" fill="#193561"/>
<path d="M15.263 15.6292C14.9973 15.6292 14.7686 15.4277 14.7374 15.1562C14.7132 14.9332 14.6848 14.7046 14.6564 14.4745L13.9221 9.81569C13.9206 9.80998 13.9206 9.80569 13.9192 9.79997C13.7289 8.31512 14.1834 6.81742 15.1664 5.69253C16.1508 4.56783 17.5698 3.92188 19.0584 3.92188C21.9149 3.92188 24.2388 6.25562 24.2388 9.12395C24.2388 9.34975 24.2245 9.57841 24.1947 9.79994C24.1947 9.80422 24.1933 9.80994 24.1933 9.81423L23.4589 14.473C23.4291 14.7102 23.4021 14.9332 23.378 15.1547C23.3453 15.4462 23.0839 15.6563 22.7942 15.6249C22.5044 15.592 22.2942 15.3291 22.3268 15.0375C22.3524 14.8074 22.3794 14.5759 22.4106 14.3301C22.4106 14.3244 22.412 14.3201 22.4135 14.3144L23.1478 9.65561C23.1705 9.48125 23.1819 9.30261 23.1819 9.12398C23.1805 6.84311 21.3311 4.98654 19.0583 4.98654C17.8736 4.98654 16.7458 5.49958 15.9631 6.39567C15.1819 7.28886 14.8211 8.47789 14.9702 9.65692L15.7046 14.3157C15.706 14.3214 15.706 14.3257 15.7074 14.3314C15.7372 14.5701 15.7656 14.8073 15.7912 15.0388C15.8239 15.3304 15.6137 15.5948 15.3239 15.6262C15.3026 15.6291 15.2828 15.6292 15.263 15.6292Z" fill="#193561"/>
<path d="M19.0582 34.7865C18.3679 34.7865 17.7031 34.4935 17.2344 33.9833C16.767 33.4745 16.5298 32.7857 16.5824 32.0954L16.8366 27.8365C16.8537 27.5435 17.1051 27.3192 17.3963 27.3377C17.6875 27.3549 17.9105 27.6078 17.8921 27.9008L17.6378 32.1652C17.6378 32.1681 17.6378 32.1724 17.6364 32.1752C17.6051 32.5782 17.7372 32.9641 18.0099 33.2614C18.2841 33.5586 18.6562 33.723 19.0582 33.723C19.4602 33.723 19.831 33.5586 20.1037 33.2628C20.3764 32.9655 20.5099 32.5797 20.4773 32.1767C20.4773 32.1738 20.4773 32.1695 20.4758 32.1666L20.2216 27.9023C20.2045 27.6093 20.4261 27.3563 20.7173 27.3392C21.0085 27.322 21.2599 27.545 21.277 27.8379L21.5313 32.0968C21.5838 32.7871 21.3466 33.4759 20.8793 33.9847C20.4134 34.4949 19.7486 34.7865 19.0582 34.7865Z" fill="#193561"/>
<path d="M20.4972 15.6293C20.4802 15.6293 20.4632 15.6278 20.4461 15.6264C20.1549 15.5978 19.9419 15.3377 19.9703 15.0462L20.4788 9.72414C20.4816 9.67984 20.483 9.64268 20.483 9.60981C20.483 8.82096 19.8438 8.17925 19.0583 8.17925C18.6563 8.17925 18.2856 8.3436 18.0128 8.63942C17.7401 8.93524 17.608 9.31969 17.6393 9.72268L18.1478 15.0462C18.1762 15.3392 17.9631 15.5993 17.6719 15.6264C17.3807 15.655 17.1222 15.4406 17.0952 15.1477L16.5867 9.8201C16.5867 9.81724 16.5867 9.81439 16.5853 9.81153C16.5299 9.11842 16.7671 8.42816 17.2359 7.91794C17.7032 7.40776 18.368 7.11621 19.0583 7.11621C20.4276 7.11621 21.5413 8.23521 21.5413 9.61144C21.5413 9.67146 21.5384 9.7372 21.5328 9.81009C21.5328 9.81438 21.5328 9.81724 21.5313 9.82152L21.0228 15.1491C20.9973 15.4235 20.7671 15.6293 20.4972 15.6293Z" fill="#193561"/>
<path d="M24.3466 28.4012H13.7684C12.6022 28.4012 11.6533 27.4465 11.6533 26.2732C11.6533 25.0999 12.6022 24.1453 13.7684 24.1453H24.3466C25.5127 24.1453 26.4616 25.0999 26.4616 26.2732C26.463 27.4465 25.5142 28.4012 24.3466 28.4012ZM13.7684 25.2085C13.1846 25.2085 12.7101 25.6858 12.7101 26.2732C12.7101 26.8606 13.1846 27.3379 13.7684 27.3379H24.3466C24.9304 27.3379 25.4048 26.8606 25.4048 26.2732C25.4048 25.6858 24.9304 25.2085 24.3466 25.2085H13.7684Z" fill="#193561"/>
<path d="M24.3466 25.2088H13.7684C12.6022 25.2088 11.6533 24.2541 11.6533 23.0808C11.6533 21.9075 12.6022 20.9529 13.7684 20.9529H24.3466C25.5127 20.9529 26.4616 21.9075 26.4616 23.0808C26.463 24.2541 25.5142 25.2088 24.3466 25.2088ZM13.7684 22.0161C13.1846 22.0161 12.7101 22.4935 12.7101 23.0808C12.7101 23.6682 13.1846 24.1455 13.7684 24.1455H24.3466C24.9304 24.1455 25.4048 23.6682 25.4048 23.0808C25.4048 22.4935 24.9304 22.0161 24.3466 22.0161H13.7684Z" fill="#193561"/>
<path d="M24.3466 22.0159H13.7684C12.6022 22.0159 11.6533 21.0613 11.6533 19.888C11.6533 18.7147 12.6022 17.76 13.7684 17.76H24.3466C25.5127 17.76 26.4616 18.7147 26.4616 19.888C26.463 21.0613 25.5142 22.0159 24.3466 22.0159ZM13.7684 18.8233C13.1846 18.8233 12.7101 19.3006 12.7101 19.888C12.7101 20.4753 13.1846 20.9527 13.7684 20.9527H24.3466C24.9304 20.9527 25.4048 20.4753 25.4048 19.888C25.4048 19.3006 24.9304 18.8233 24.3466 18.8233H13.7684Z" fill="#193561"/>
<path d="M24.3466 18.8235H13.7684C12.6022 18.8235 11.6533 17.8689 11.6533 16.6956C11.6533 15.5223 12.6022 14.5676 13.7684 14.5676H24.3466C25.5127 14.5676 26.4616 15.5223 26.4616 16.6956C26.463 17.8674 25.5142 18.8235 24.3466 18.8235ZM13.7684 15.6294C13.1846 15.6294 12.7101 16.1068 12.7101 16.6942C12.7101 17.2815 13.1846 17.7589 13.7684 17.7589H24.3466C24.9304 17.7589 25.4048 17.2815 25.4048 16.6942C25.4048 16.1068 24.9304 15.6294 24.3466 15.6294H13.7684Z" fill="#193561"/>
<path d="M30.1648 35.8514C30.0483 35.8514 29.9318 35.8128 29.8352 35.7342L28.5682 34.7152C27.5752 33.9149 27.1108 32.5915 27.3878 31.3425C27.5298 30.698 27.4005 30.0448 27.0227 29.5061C26.6448 28.9659 26.0781 28.6243 25.4261 28.5414L24.2827 28.3971C23.9929 28.3599 23.7869 28.0941 23.8239 27.8026C23.8608 27.511 24.125 27.3038 24.4148 27.341L25.5582 27.4853C26.4957 27.6025 27.3438 28.1156 27.8878 28.893C28.4318 29.669 28.6264 30.6466 28.4219 31.574C28.2329 32.4301 28.5497 33.3376 29.2315 33.8849L30.4986 34.9039C30.7273 35.0868 30.7642 35.4227 30.581 35.6513C30.4744 35.7828 30.3196 35.8514 30.1648 35.8514Z" fill="#193561"/>
<path d="M13.7685 15.6292C13.7258 15.6292 13.6832 15.6235 13.6392 15.6135L12.3508 15.2891C10.3778 14.7932 8.90054 13.0925 8.67629 11.0576C8.56691 10.0629 8.08538 9.16116 7.31974 8.52092L5.49589 6.99176C5.27145 6.80312 5.24162 6.4687 5.4277 6.2429C5.6152 6.01709 5.9476 5.98708 6.17203 6.1743L7.99589 7.70346C8.97174 8.52092 9.58538 9.67135 9.726 10.9404C9.90213 12.5353 11.0598 13.8672 12.6067 14.256L13.8951 14.5804C14.1777 14.6518 14.351 14.9405 14.28 15.2263C14.2218 15.4679 14.0057 15.6292 13.7685 15.6292Z" fill="#193561"/>
</svg>
