<svg width="42" height="42" viewBox="0 0 42 42" fill="none" xmlns="http://www.w3.org/2000/svg">
<path d="M15.5283 4.96582C15.671 4.96582 15.8224 5.0311 15.9033 5.17285L15.9072 5.17969C15.9545 5.27738 16.4533 6.15313 17.1758 7.41992C17.8973 8.68502 18.8377 10.3339 19.7617 11.9668C20.6855 13.5994 21.5934 15.2167 22.249 16.4199C22.5766 17.0211 22.8417 17.5204 23.0146 17.8662C23.0762 17.9892 23.1255 18.095 23.1631 18.1787L26.0908 13.0137C26.2484 12.7227 26.6843 12.7225 26.8418 13.0137L33.583 24.9189C34.306 26.1965 34.6882 27.6378 34.6895 29.0801L34.6787 29.5117C34.4579 33.9379 30.8595 37.4788 26.4639 37.4795L26.4648 37.4805C22.0383 37.5955 18.2212 33.603 18.2617 29.1641C13.0754 31.1146 7.20511 26.9396 7.31152 21.252C7.31189 19.8012 7.69401 18.3572 8.41797 17.0781L15.1533 5.17383V5.17285C15.2342 5.03105 15.3857 4.96588 15.5283 4.96582ZM23.5117 19.3008C24.4361 23.0231 22.5068 27.1546 19.1152 28.8047C18.8951 32.9023 22.3842 36.7103 26.459 36.5977L26.4619 36.5967V36.5977C30.5192 36.5977 33.823 33.2313 33.8262 29.0801C33.8261 27.7859 33.4799 26.4974 32.832 25.3486L26.4609 14.1025L23.5117 19.3008ZM31.3164 28.5273C31.5503 28.5008 31.7658 28.669 31.792 28.9131L31.8154 29.1924C31.8563 29.9084 31.7794 31.0554 31.123 32.2139L31.1221 32.2148C30.1031 33.9501 28.6102 34.5309 27.877 34.7041L27.8682 34.7061H27.8584C27.6046 34.7152 27.4572 34.5207 27.4307 34.3291C27.4043 34.1379 27.4921 33.9101 27.7363 33.8467H27.7383C28.6517 33.6267 29.5319 32.9789 30.1436 32.1025C30.7546 31.2269 31.092 30.1309 30.9307 29.0205L30.9297 29.0166C30.9056 28.7949 31.0555 28.5878 31.2695 28.542L31.2812 28.5312L31.3164 28.5273ZM9.16211 17.5078C8.50093 18.6769 8.16699 19.9321 8.16699 21.2471C8.16712 25.3874 11.4653 28.7498 15.5176 28.75H15.5615L15.5674 28.7559C20.2175 28.8603 23.919 23.9658 22.6406 19.3525L22.6377 19.3418L22.6367 19.3311C22.6342 19.2786 22.6106 19.1836 22.5596 19.043C22.5097 18.9055 22.4371 18.7336 22.3447 18.5312C22.16 18.1266 21.898 17.6053 21.582 17.0059C20.9503 15.8073 20.1063 14.299 19.2451 12.7861C17.6464 9.97759 15.9851 7.14537 15.5205 6.26855L9.16211 17.5078ZM10.6816 20.6992C10.7849 20.7109 10.8879 20.7578 10.9619 20.8398C11.0375 20.9238 11.0779 21.04 11.0635 21.1768V21.1807C10.9021 22.291 11.2385 23.3871 11.8496 24.2627C12.4231 25.0844 13.2333 25.7044 14.085 25.96L14.2559 26.0068L14.2607 26.0078C14.4928 26.078 14.6204 26.3155 14.5615 26.5479C14.5008 26.7868 14.2521 26.9162 14.0293 26.8564V26.8574C11.8021 26.3048 9.83152 23.7576 10.208 21.0811L10.2285 20.9844C10.2568 20.8944 10.31 20.8235 10.3789 20.7744C10.4686 20.7106 10.5786 20.6877 10.6816 20.6992Z" fill="#FFC3FF" stroke="#FFC3FF" stroke-width="0.2"/>
</svg>
