<svg width="40" height="45" viewBox="0 0 40 45" fill="none" xmlns="http://www.w3.org/2000/svg">
<path d="M32.9307 20.359C33.4477 20.3662 33.9676 20.3876 34.4832 20.3519C35.4037 20.2861 36.1082 19.573 36.327 18.5412C36.4832 17.8023 36.0173 16.8291 35.3057 16.4489C35.0656 16.3203 34.8 16.2117 34.5343 16.1531C34.2687 16.0945 33.9846 16.1059 33.6622 16.0831C33.6182 15.0441 33.3611 14.0494 32.8114 13.0862C32.9676 13.0791 33.0727 13.0676 33.175 13.0676C33.8 13.0676 34.4264 13.1077 35.0401 12.889C35.9534 12.5603 36.3923 11.5685 36.3639 10.844C36.3199 9.83358 35.5457 8.97752 34.6111 8.84607C34.2474 8.79462 33.8724 8.80891 33.5059 8.79462C33.3866 8.79033 33.2701 8.79462 33.1466 8.79462C33.2446 8.45449 33.3611 8.14296 33.415 7.82138C33.5968 6.79384 32.9491 5.81632 31.942 5.5491C31.7929 5.50908 30.8909 5.49765 30.746 5.53766C30.1466 5.71344 29.6949 6.05787 29.4292 6.64236C29.1352 7.30404 28.8255 7.96002 28.5159 8.61025C28.4789 8.68742 28.3809 8.78603 28.3085 8.78603C27.486 8.79746 26.665 8.79318 25.7815 8.79318C25.8511 8.66456 25.898 8.58167 25.942 8.49735C26.5386 7.3369 25.9278 5.92207 24.665 5.54908C24.5159 5.50478 23.6934 5.47905 23.6111 5.49763C22.8909 5.65913 22.3923 6.07214 22.094 6.7524C21.817 7.38123 21.5273 8.00004 21.229 8.61884C21.192 8.69602 21.0912 8.79034 21.0145 8.79034C20.2219 8.79748 19.425 8.79034 18.6324 8.78319C18.6068 8.78319 18.5855 8.76461 18.5415 8.74603C18.5599 8.70173 18.5699 8.66172 18.5926 8.62599C19.2943 7.42555 18.6764 5.90353 17.3412 5.53767C17.192 5.49766 16.4506 5.47908 16.3852 5.49051C15.4648 5.64771 14.9846 6.26652 14.6622 7.08541C14.452 7.61989 14.1934 8.13582 13.9463 8.65171C13.9179 8.71459 13.8298 8.79033 13.7687 8.79033C12.9576 8.80176 12.1437 8.79748 11.2815 8.79748C11.3355 8.65457 11.3682 8.55596 11.4093 8.45735C11.969 7.20258 11.3142 5.81204 10.0173 5.52338C9.88237 5.4948 9.08691 5.4948 8.97327 5.52338C8.28578 5.69202 7.81985 6.11219 7.53294 6.75957C7.26448 7.37124 6.96902 7.97003 6.70054 8.5817C6.6281 8.74319 6.54003 8.80178 6.36531 8.80178C6.00594 8.80178 5.63804 8.77606 5.28862 8.84895C4.45197 9.02044 3.88804 9.51776 3.68491 10.3852C3.65935 10.4953 3.64088 11.4099 3.68918 11.5743C3.9406 12.4117 4.62667 12.9748 5.48888 13.042C5.79854 13.0634 6.10678 13.0791 6.41219 13.082L7.20198 14.8569C7.20198 14.8569 7.20624 14.8784 7.20908 14.8898C7.26021 15.047 7.32839 15.2014 7.38663 15.3585C7.47328 15.5886 7.56135 15.823 7.67073 16.1117H7.27443C6.63807 16.1231 5.98749 16.0645 5.36534 16.1703C4.48182 16.3161 3.84829 16.8291 3.66363 17.7766C3.64233 17.8795 3.63096 18.6912 3.675 18.8413C3.96619 19.8403 4.76591 20.4176 5.80569 20.3819C5.96904 20.3747 6.13239 20.3819 6.36249 20.3819C6.19914 21.4023 6.148 22.4084 6.3909 23.4631C6.1622 23.4631 5.99032 23.4745 5.82413 23.4631C4.88948 23.4002 3.7801 24.0562 3.66079 25.1309C3.64943 25.2223 3.63238 26.0269 3.66789 26.1584C3.94488 27.1059 4.76589 27.7319 5.74458 27.7347H7.65367C7.56987 27.9877 7.51589 28.2106 7.42498 28.415C7.26163 28.788 7.06844 29.1467 6.90083 29.5197C6.77015 29.8055 6.60964 30.0899 6.5514 30.3943C6.48606 30.7316 6.32271 30.7887 6.02726 30.7816C5.58406 30.7673 5.14656 30.8144 4.73322 31.0159C4.18067 31.286 3.8426 31.7148 3.68635 32.3078C3.64941 32.4465 3.61674 33.3182 3.64941 33.434C3.94771 34.4287 4.6892 35.0103 5.72611 35.0475C5.87526 35.0518 6.02724 35.0732 6.16931 35.0475C6.50738 34.9817 6.65651 35.1389 6.78011 35.439C7.02016 36.0207 7.29716 36.5909 7.56563 37.1625C8.07414 38.2415 9.26025 38.706 10.3043 38.2387C11.4065 37.7442 11.871 36.5737 11.4136 35.4505C11.3668 35.3333 11.3227 35.2161 11.2602 35.056H12.6864C13.0102 35.056 13.3341 35.0346 13.658 35.0517C13.7602 35.0589 13.9023 35.1475 13.9449 35.2347C14.2247 35.8092 14.4833 36.3951 14.7418 36.9796C15.0585 37.6927 15.5529 38.18 16.327 38.373C17.614 38.6946 19.0173 37.4912 18.8582 36.1665C18.8142 35.8078 18.6807 35.4562 18.5784 35.0732C18.6153 35.0732 18.6977 35.0546 18.7858 35.0546C19.4989 35.0546 20.2119 35.0546 20.9236 35.0475C21.094 35.0475 21.1849 35.0989 21.2546 35.2633C21.5202 35.8778 21.8113 36.478 22.077 37.0925C22.5244 38.1272 23.506 38.5016 24.219 38.4173C25.2304 38.3001 25.9974 37.5541 26.1537 36.548C26.2332 36.0278 26.0841 35.5562 25.7716 35.0803C25.8809 35.0689 25.9648 35.0589 26.0486 35.0589C26.7687 35.0546 27.4918 35.0589 28.2119 35.0475C28.4051 35.0475 28.4775 35.1275 28.55 35.2961C28.8667 36.0164 29.1537 36.7595 29.5429 37.4398C30.0415 38.3073 31.3937 38.8775 32.5898 37.9743C33.4775 37.3012 33.692 36.1822 33.1281 35.2118C33.1097 35.1832 33.1025 35.1461 33.0656 35.0546C33.273 35.0546 33.4506 35.0617 33.6295 35.0546C34.0074 35.0332 34.3938 35.0432 34.7574 34.9588C35.8199 34.7102 36.3753 33.7255 36.3469 32.8623C36.31 31.739 35.4705 30.8973 34.4094 30.8173C34.0245 30.7887 33.6353 30.803 33.2461 30.7915C33.1111 30.7915 32.9804 30.773 32.8639 30.7658C33.06 30.2542 33.2858 29.7812 33.4207 29.2838C33.5557 28.7936 33.5983 28.282 33.6892 27.7475H34.0926C35.3028 27.7475 36.3114 26.8701 36.3398 25.6653C36.3654 24.6006 35.6921 23.6717 34.5003 23.5074C33.9832 23.4345 33.4492 23.4788 32.9222 23.4859C32.7191 23.4859 32.6125 23.4159 32.533 23.223C32.1651 22.3626 32.1551 21.5137 32.533 20.6549C32.6168 20.4648 32.7262 20.3847 32.9293 20.3876L32.9307 20.359ZM4.89103 33.8557C4.48052 33.5013 4.32001 32.9454 4.49474 32.4723C4.68082 31.9707 5.17798 31.6378 5.73052 31.6535C5.90524 31.6577 6.07569 31.6678 6.19216 31.6749C6.23619 32.4909 6.27597 33.2741 6.32284 34.1072C5.84273 34.1072 5.32993 34.2273 4.89386 33.8543L4.89103 33.8557ZM34.5558 24.3907C35.2944 24.4893 35.7191 25.4668 35.3455 26.1214C35.0288 26.6816 34.4251 26.956 33.7859 26.8088C33.7205 26.7945 33.6623 26.6516 33.641 26.5601C33.5131 25.9742 33.4052 25.3825 33.2773 24.7966C33.2489 24.658 33.1751 24.5265 33.1211 24.3836C33.6083 24.3836 34.0884 24.3321 34.5572 24.395L34.5558 24.3907ZM32.8214 9.70242C33.3484 9.69528 33.8754 9.69528 34.4038 9.721C34.8768 9.74672 35.3271 10.1455 35.4407 10.5913C35.5785 11.1544 35.3967 11.6818 34.9322 11.9447C34.7319 12.0576 34.489 12.109 34.2561 12.1419C34.0203 12.1748 33.776 12.1491 33.5359 12.1491V12.1605C33.2419 12.1605 32.9436 12.1562 32.6481 12.1605C32.4734 12.1648 32.3754 12.0976 32.3356 11.919C32.1822 11.1944 32.2447 10.4927 32.587 9.8339C32.624 9.76387 32.7433 9.69813 32.8271 9.69527L32.8214 9.70242ZM29.7703 7.97603C29.9052 7.72308 30.0061 7.45297 30.1197 7.19003C30.4109 6.52121 30.8938 6.2211 31.5274 6.3197C32.2546 6.4326 32.7305 7.13146 32.5203 7.84173C32.3896 8.27332 32.1936 8.69062 31.9819 9.08936C31.222 10.5156 31.2106 11.9247 31.989 13.3483C32.4322 14.1528 32.712 15.016 32.8029 15.935C32.8072 15.9793 32.8029 16.0264 32.8029 16.1065H31.8029C31.3768 16.1065 30.9521 16.1022 30.526 16.1065C30.3768 16.1065 30.3299 16.0521 30.2817 15.9121C30.1041 15.3776 29.9549 14.8259 29.6992 14.3244C28.6197 12.1878 28.6339 10.0797 29.7646 7.97607L29.7703 7.97603ZM28.2788 13.1452C28.6382 13.9683 28.9918 14.7958 29.337 15.6261C29.391 15.7619 29.4237 15.9048 29.4819 16.102H27.1552C26.4166 16.102 26.3882 16.102 26.3115 15.3846C26.2319 14.6272 25.962 13.9469 25.6467 13.2695C25.6211 13.2109 25.5956 13.1566 25.5629 13.0723C25.6254 13.058 25.6652 13.0437 25.705 13.0437C26.4905 13.0437 27.276 13.0394 28.0615 13.0437C28.1382 13.0437 28.2575 13.0837 28.2802 13.1395L28.2788 13.1452ZM28.9847 26.7948C25.7845 26.7948 22.584 26.7948 19.3811 26.802C19.1922 26.802 19.1297 26.7477 19.0942 26.5647C18.9706 25.9388 18.8257 25.3171 18.6794 24.6954C18.6538 24.5897 18.5956 24.4939 18.5445 24.3739C21.7405 24.3739 24.9008 24.3782 28.0645 24.3667C28.3514 24.3667 28.4977 24.4253 28.6099 24.7183C28.8358 25.3071 29.127 25.8673 29.3841 26.4447C29.4238 26.5319 29.4423 26.6319 29.4792 26.7634C29.2861 26.7777 29.1341 26.8005 28.9807 26.8005L28.9847 26.7948ZM29.5018 27.7237C29.3967 28.0239 29.3086 28.2725 29.2177 28.5212C29.1737 28.6341 29.0316 28.9642 29.0245 29.0185L28.1197 30.7563C27.4066 30.7606 26.6907 30.7706 25.9777 30.7706H25.5302C25.6168 30.5991 25.668 30.492 25.7234 30.3905C26.1012 29.6916 26.2802 28.9414 26.3527 28.1553C26.3896 27.7266 26.3995 27.7266 26.8285 27.7266H29.1055H29.5061L29.5018 27.7237ZM14.7051 30.4391C14.8982 30.0361 15.0872 29.6345 15.2903 29.2386C15.9735 27.9067 15.9522 26.5791 15.269 25.2585C14.9309 24.6069 14.6113 23.9495 14.4906 23.2135C14.3457 22.3431 14.3557 21.4714 14.5119 20.6053C14.5261 20.521 14.6539 20.401 14.7307 20.3967C15.5162 20.3824 16.3017 20.3853 17.1085 20.3853C17.0389 20.6596 16.9594 20.9412 16.9011 21.227C16.698 22.2474 16.9807 23.192 17.4537 24.0695C18.1184 25.3057 18.3557 26.609 18.2349 27.998C18.1511 28.9455 17.8088 29.7987 17.3585 30.6176C17.3215 30.6877 17.2164 30.7563 17.1397 30.7605C16.3102 30.772 15.482 30.7677 14.5829 30.7677C14.6412 30.6062 14.6625 30.519 14.6994 30.439L14.7051 30.4391ZM14.4323 29.0228C14.2065 29.5502 13.9778 30.0761 13.7377 30.5991C13.7051 30.6763 13.607 30.7706 13.5374 30.7706C12.7406 30.7706 11.9479 30.7592 11.1525 30.7492C11.1198 30.7492 11.1056 30.7563 11.0033 30.702C11.5375 29.7731 11.8073 28.7956 11.8357 27.7424H14.9636C14.7775 28.1883 14.6113 28.6055 14.4323 29.0228ZM13.6838 23.4106C13.5815 23.4292 13.5062 23.4506 13.4252 23.4506C12.6397 23.4506 11.8542 23.4464 11.0687 23.4578C10.8684 23.4578 10.7775 23.3806 10.7008 23.202C10.3556 22.3531 10.3301 21.5085 10.6823 20.6553C10.7661 20.4509 10.8755 20.3552 11.1156 20.3623C11.8826 20.3766 12.6497 20.3623 13.4167 20.3623C13.4792 20.3623 13.5403 20.3766 13.6525 20.3909C13.4664 21.3927 13.4195 22.3888 13.6809 23.4092L13.6838 23.4106ZM11.8258 19.459H11.3755C11.5573 18.673 11.7391 17.8856 11.9394 17.0296H12.4806H21.1097C21.3498 17.0296 21.5898 17.0181 21.8299 17.0253C22.1893 17.0324 22.2219 17.0696 22.0984 17.4168C21.989 17.7198 21.8768 18.0314 21.7134 18.31C21.4947 18.683 21.3214 19.0675 21.1822 19.4548C21.1822 19.4548 18.9819 19.4619 18.9279 19.4619H11.8228L11.8258 19.459ZM24.3131 23.1062C24.3415 23.2019 24.367 23.2962 24.4082 23.4277C24.2193 23.4391 24.0659 23.4534 23.9097 23.4534C23.2918 23.4577 22.6696 23.4534 22.0517 23.4677C21.8585 23.472 21.7903 23.402 21.7605 23.2262C21.5318 21.7885 21.6185 20.3908 22.2946 19.0705C22.4878 18.6903 22.6696 18.3016 22.8216 17.9072C23.2619 16.7653 23.0872 15.6649 22.5602 14.5931C22.3244 14.1143 22.1057 13.627 21.8614 13.1039C21.9892 13.0896 22.0574 13.0753 22.127 13.0753C22.8656 13.071 23.6071 13.0753 24.3457 13.061C24.5233 13.061 24.6185 13.1125 24.698 13.2883C25.0219 13.9985 25.3742 14.7002 25.4622 15.4877C25.6156 16.8853 25.5247 18.2459 24.8543 19.5307C24.5886 20.0423 24.3926 20.6026 24.225 21.1585C24.0318 21.8059 24.1057 22.4647 24.3116 23.1078L24.3131 23.1062ZM22.2406 16.0851H19.1213C19.056 15.0318 18.7946 14.0357 18.2662 13.0782C18.3855 13.0639 18.4551 13.0525 18.5247 13.0525C19.2733 13.0525 20.019 13.0453 20.769 13.0596C20.86 13.0596 20.9906 13.1396 21.0276 13.2168C21.2747 13.7542 21.5006 14.303 21.7293 14.8489C21.8969 15.2433 22.056 15.6434 22.2421 16.0893L22.2406 16.0851ZM18.0192 23.2708C17.6271 22.3604 17.6158 21.4487 18.0263 20.5455C18.0661 20.4583 18.2152 20.3811 18.3203 20.374C18.5788 20.3597 18.8374 20.374 19.0945 20.3783L20.9311 20.3854C20.7678 21.2086 20.7493 22.0575 20.8516 22.9321C20.87 23.0864 20.9141 23.2393 20.9567 23.4437H20.3459C19.6811 23.4437 19.0149 23.4437 18.3501 23.4551C18.1896 23.4551 18.0888 23.4223 18.0234 23.2679L18.0192 23.2708ZM28.1243 23.428C28.1243 23.428 28.1172 23.4423 28.0916 23.4423C27.2876 23.4494 26.4836 23.4466 25.6811 23.4609C25.4524 23.4609 25.3359 23.3651 25.2479 23.1579C24.8771 22.2876 24.8771 21.4272 25.299 20.5755C25.343 20.4883 25.4439 20.3711 25.5206 20.3668C26.3927 20.3525 27.2692 20.3554 28.1243 20.3554L28.1243 23.428ZM22.245 8.47373C22.4552 8.0207 22.6782 7.57341 22.8814 7.11609C23.1655 6.48012 23.7109 6.19004 24.387 6.33722C24.9396 6.45727 25.3828 7.17181 25.2706 7.76347C25.2564 7.8435 25.2336 7.92496 25.2081 8.00499C24.9865 8.74383 24.9211 8.79099 24.164 8.79099H22.4481H22.1356C22.1825 8.65236 22.208 8.55375 22.2478 8.46515L22.245 8.47373ZM18.2919 9.70992C19.826 9.70563 21.3615 9.72135 22.8999 9.72421C24.6016 9.72421 26.3033 9.72421 28.005 9.71992C28.049 9.71992 28.0916 9.73135 28.1101 9.73421V12.1451C28.0263 12.1523 27.9354 12.1637 27.8487 12.1637C24.6016 12.1637 21.3546 12.1637 18.1102 12.1708C17.8815 12.1708 17.8048 12.1051 17.7792 11.8822C17.7096 11.2091 17.6514 10.5431 17.9895 9.9214C18.0434 9.82279 18.1897 9.71275 18.2949 9.71275L18.2919 9.70992ZM14.7351 8.99965C14.8189 8.72955 14.9752 8.47659 15.0945 8.2165C15.2649 7.84637 15.4439 7.47766 15.603 7.10464C15.8715 6.4787 16.5845 6.12426 17.174 6.35862C17.7052 6.57013 18.1953 7.20752 17.9382 7.92492C17.8217 8.24647 17.6698 8.55375 17.5348 8.86812C17.3644 9.26683 17.1641 9.65844 17.0263 10.0715C16.684 11.0847 16.8331 12.0622 17.2706 13.024C17.5646 13.6714 17.8374 14.3331 18.0746 15.0033C18.1911 15.3363 18.2024 15.7093 18.2635 16.0795C18.184 16.0909 18.1286 16.1052 18.0774 16.1052C17.3828 16.1052 16.6882 16.1052 15.9979 16.1095C15.8373 16.1095 15.7834 16.0552 15.7322 15.9051C15.5547 15.3821 15.4055 14.8333 15.1498 14.346C14.2407 12.6153 14.1683 10.8332 14.7322 8.99681L14.7351 8.99965ZM13.7493 13.2542C13.9382 13.7658 14.1826 14.256 14.3999 14.7576C14.586 15.1892 14.7678 15.6208 14.9667 16.0895H11.8175C11.8175 15.032 11.4979 14.063 10.9993 13.097C11.1186 13.0855 11.1953 13.0755 11.272 13.0755C12.0036 13.0641 12.7337 13.0612 13.461 13.0469C13.6172 13.0469 13.6826 13.0798 13.7479 13.2513L13.7493 13.2542ZM7.78641 8.27526C7.96397 7.89799 8.14295 7.52211 8.31056 7.13767C8.53641 6.61747 8.90998 6.3145 9.47816 6.3002C10.0023 6.28591 10.3688 6.55601 10.6131 7.01047C10.758 7.28057 10.7551 7.56353 10.6855 7.84794C10.4753 8.70828 10.3659 8.79115 9.50798 8.79115H7.53355C7.63582 8.5825 7.71537 8.42958 7.79207 8.27094L7.78641 8.27526ZM5.76085 12.1709C5.16427 12.1709 4.66569 11.8522 4.49521 11.3548C4.3205 10.8532 4.47675 10.2901 4.92136 9.96144C5.08187 9.8414 5.29921 9.75279 5.49947 9.7385C5.98667 9.70563 6.47816 9.72421 6.96823 9.72421C9.07761 9.71706 11.1828 9.71278 13.2922 9.70563C13.6772 9.70563 13.6516 9.71278 13.609 10.1001C13.5323 10.7617 13.5039 11.4277 13.4527 12.1523H13.0607C10.6275 12.1594 8.19852 12.1666 5.76652 12.1709L5.76085 12.1709ZM8.31339 17.8043C8.69125 16.751 8.54209 15.7192 8.07334 14.7202C8.07334 14.7131 8.06623 14.7088 8.06197 14.7017C8.06623 14.6316 7.39295 13.0696 7.39295 13.0696C8.17419 13.0653 8.95263 13.0582 9.73528 13.0482C9.91284 13.0482 10.0222 13.0925 10.1131 13.2568C11.2438 15.3462 11.2879 17.4499 10.2552 19.5894C9.99666 20.1268 9.79638 20.7013 9.62591 21.2758C9.43983 21.9046 9.56341 22.5305 9.77506 23.1379C9.80346 23.2222 9.8333 23.3065 9.87733 23.4409H9.46257C8.82195 23.4452 8.18558 23.4409 7.54638 23.4594C7.3319 23.4637 7.21542 23.3866 7.18701 23.1736C6.99809 21.8231 7.05632 20.5026 7.6529 19.2451C7.87875 18.7663 8.13585 18.3019 8.31057 17.8031L8.31339 17.8043ZM5.58612 19.462C4.97816 19.4549 4.4739 18.9604 4.42987 18.3359C4.39009 17.75 4.84038 17.1355 5.40147 17.0597C5.7651 17.0083 6.50659 17.0197 6.50659 17.034H7.39438C7.60886 17.034 7.68131 17.114 7.5833 17.3269C7.27364 18 6.97533 18.6775 6.65999 19.3506C6.63158 19.4091 6.51794 19.4606 6.4455 19.4635C6.15857 19.4777 5.87448 19.4706 5.58754 19.4677L5.58612 19.462ZM6.77219 26.7905C6.32899 26.7905 5.88158 26.8233 5.4455 26.7762C4.89296 26.7176 4.47816 26.2202 4.43416 25.65C4.39438 25.1298 4.75092 24.5853 5.24809 24.4138C5.33189 24.3853 5.4299 24.3767 5.52081 24.3767C8.22961 24.3767 10.9426 24.3767 13.6514 24.381C13.7565 24.381 13.9198 24.4439 13.961 24.5239C14.2735 25.197 14.5604 25.8773 14.8559 26.5575C14.8815 26.6161 14.8886 26.6776 14.9141 26.7919H14.1243H6.77198L6.77219 26.7905ZM10.0194 37.4189C9.44125 37.7047 8.66994 37.4846 8.39008 36.8444C7.97958 35.8926 7.39434 35.0108 7.21961 33.9647C6.98666 32.5885 7.03353 31.2394 7.65568 29.959C7.98239 29.2816 8.3787 28.6385 8.47387 27.8696C8.48097 27.8182 8.56051 27.7338 8.60881 27.7338C9.39434 27.7267 10.1756 27.7267 11.052 27.7267C10.8887 28.3813 10.775 28.9929 10.5762 29.5746C10.3986 30.0905 10.1074 30.5621 9.88866 31.0637C9.39434 32.1898 9.47815 33.3103 9.99378 34.4078C10.2012 34.8537 10.4228 35.2939 10.6188 35.7426C10.9057 36.4114 10.6515 37.1074 10.0222 37.4218L10.0194 37.4189ZM17.2084 37.456C16.5763 37.6861 15.8818 37.376 15.5976 36.7386C15.3619 36.2084 15.1104 35.6811 14.8661 35.1509C14.8548 35.1295 14.8619 35.0994 14.859 35.038H15.8775C16.3505 35.038 16.8192 35.0451 17.2923 35.0308C17.4954 35.0266 17.6232 35.0966 17.6957 35.2909C17.7724 35.4882 17.8633 35.6825 17.94 35.8798C18.1943 36.5528 17.7369 37.2588 17.2085 37.4532L17.2084 37.456ZM20.5096 34.1162C17.3533 34.1205 14.1998 34.1233 11.0438 34.1276C10.8875 34.1276 10.7895 34.099 10.7171 33.9404C10.3974 33.2487 10.4188 32.5313 10.531 31.8082C10.5381 31.7539 10.673 31.6796 10.7497 31.6767C11.0367 31.6624 11.3236 31.6767 11.6119 31.6767C14.5906 31.6767 17.5723 31.6767 20.5494 31.6695C20.7525 31.6695 20.7937 31.7353 20.7937 31.9254C20.7937 32.4741 20.8122 33.0229 20.8377 33.5674C20.8449 33.7289 20.9074 33.889 20.95 34.0833C20.7937 34.0948 20.6517 34.1119 20.5068 34.1119L20.5096 34.1162ZM21.2042 30.0845C21.1531 30.1945 21.0948 30.3003 21.0806 30.4218C21.0437 30.729 20.9031 30.7876 20.6261 30.7805C20.0267 30.759 19.4258 30.7733 18.8264 30.7733H18.3022C18.5096 30.2431 18.7355 29.7715 18.8732 29.277C19.011 28.7912 19.0593 28.2752 19.1502 27.7507H22.1829C22.1431 27.9079 22.1289 28.0437 22.0735 28.1638C21.7866 28.8083 21.4911 29.4442 21.2014 30.0845L21.2042 30.0845ZM24.9242 37.1385C24.3503 37.7387 23.3858 37.6916 23.0151 36.9441C22.5322 35.9709 21.9455 35.0234 21.7608 33.9216C21.5137 32.451 21.6444 31.039 22.3319 29.6886C22.6117 29.1399 22.7907 28.5396 23.008 27.9622C23.0549 27.8422 23.0663 27.7207 23.2523 27.725C23.991 27.7365 24.7324 27.7293 25.5137 27.7293C25.4853 28.4867 25.3319 29.1784 25.0265 29.833C24.866 30.1774 24.6884 30.5132 24.5279 30.8605C23.9867 32.0352 23.9867 33.2128 24.535 34.3904C24.7282 34.8034 24.9313 35.2093 25.1203 35.6237C25.3973 36.2354 25.3277 36.717 24.92 37.1414L24.9242 37.1385ZM31.7424 37.4643C31.0918 37.6844 30.4881 37.42 30.1785 36.7727C29.9128 36.2125 29.6614 35.6494 29.3858 35.0391H29.7495C30.4625 35.0391 31.1756 35.0391 31.8844 35.0277C32.0591 35.0277 32.1642 35.072 32.2225 35.2363C32.3134 35.4893 32.4512 35.7265 32.5094 35.9866C32.6657 36.6641 32.339 37.2628 31.7424 37.4643ZM34.2765 31.6736C34.9086 31.6736 35.4583 32.2038 35.4867 32.8512C35.5151 33.4872 34.9952 34.0945 34.3674 34.1031C32.9171 34.1217 30.011 34.1246 30.011 34.1317C28.5849 34.1317 27.1644 34.1246 25.7383 34.1389C25.4443 34.1389 25.2951 34.0517 25.1971 33.7616C24.9897 33.1585 24.9102 32.5583 25.0551 31.928C25.1019 31.7237 25.2085 31.6537 25.4002 31.6537C27.4542 31.6651 29.5053 31.6751 31.5606 31.6822C32.4654 31.6822 33.3745 31.6751 34.2808 31.6708L34.2765 31.6736ZM32.2836 24.6682C33.0322 26.4718 33.0038 28.2539 32.2253 30.0532C31.9782 30.6277 31.6728 30.8035 31.0549 30.7849C30.4142 30.7664 29.7708 30.7635 29.1316 30.7635C29.1316 30.7635 29.9384 29.1457 29.9242 29.0543C30.062 28.707 30.1855 28.3483 30.2807 27.9853C30.5066 27.1035 30.2807 26.2732 29.9213 25.4686C29.7864 25.1728 29.6301 24.887 29.4952 24.5912C28.9128 23.3035 28.7892 21.9673 29.0591 20.5854C29.0918 20.4168 29.1756 20.3696 29.3247 20.3739C30.0265 20.3854 30.7324 20.3925 31.4341 20.4025C31.5875 20.4025 31.6955 20.4425 31.6159 20.6369C31.2921 21.4129 31.3247 22.2103 31.5762 22.9863C31.7622 23.5637 32.052 24.1096 32.2892 24.677L32.2836 24.6682ZM25.8036 19.4662C26.2297 18.7673 26.2624 18.0171 26.3774 17.2896C26.4101 17.0953 26.4797 17.0195 26.6786 17.0195C29.1771 17.0238 31.6742 17.0195 34.1727 17.0267C34.758 17.0267 35.2892 17.4111 35.4341 17.8941C35.5946 18.4286 35.3901 18.9988 34.91 19.3033C34.775 19.3876 34.6046 19.4605 34.4483 19.4605C31.5904 19.4719 28.7323 19.4676 25.8047 19.4676L25.8036 19.4662Z" fill="#193561"/>
</svg>
