<svg width="56" height="60" viewBox="0 0 56 60" fill="none" xmlns="http://www.w3.org/2000/svg">
<path d="M19.1923 50H19.5482C21.7377 50 23.8238 49.1992 25.4028 47.6504C27.0832 46.0508 27.9999 43.9512 27.9999 41.6504C27.9999 39.0508 26.7272 36.5509 24.5894 34.9999V14.9999C24.5894 12.2499 22.2985 9.99988 19.4985 9.99988C16.6985 9.99988 14.4076 12.2499 14.4076 14.9999V34.9999C12.3195 36.5507 11.0468 38.9491 10.9971 41.5509C10.9454 46.0509 14.6103 49.801 19.1923 50ZM15.2209 35.6505C15.3741 35.5509 15.4238 35.4005 15.4238 35.2501L15.4258 15.0001C15.4258 12.8009 17.2593 11.0001 19.4985 11.0001C21.7377 11.0001 23.5712 12.8009 23.5712 15.0001V35.3011C23.5712 35.4515 23.6726 35.6019 23.7741 35.7015C25.7587 37.1019 26.9817 39.3519 26.9817 41.7015C26.9817 43.7015 26.1664 45.6019 24.6908 47.0025C23.2153 48.4029 21.2803 49.1021 19.1921 49.0533C15.1711 48.9029 11.9636 45.5533 12.0129 41.6043C12.0646 39.2 13.2359 37.0008 15.2206 35.6513L15.2209 35.6505Z" fill="#193561"/>
<path d="M19.2936 47.199H19.4965C21.0237 47.199 22.4496 46.5994 23.5175 45.5486C24.5874 44.4978 25.1979 43.0994 25.1979 41.5994C25.1979 39.7986 24.2811 38.0994 22.8056 37.0486L21.8391 36.3494V14.9999C21.8391 13.8007 20.8209 12.8007 19.5999 12.8007C18.3789 12.8007 17.3607 13.8007 17.3607 14.9999V36.4489L16.2908 37.15C14.8153 38.15 13.8985 39.8492 13.8985 41.5992C13.7971 44.5504 16.2906 47.0995 19.2936 47.199ZM16.8516 37.949L18.0726 37.0994C18.2257 36.9997 18.2754 36.8494 18.2754 36.699V15C18.2754 14.3008 18.8362 13.75 19.5481 13.75C20.26 13.75 20.8209 14.3008 20.8209 15V36.699C20.8209 36.8494 20.9223 36.9997 21.0237 37.0994L22.2447 37.949C23.5174 38.7986 24.2293 40.199 24.2293 41.699C24.2293 42.8982 23.7203 44.0486 22.8552 44.949C21.9902 45.7986 20.8188 46.2986 19.5461 46.2986H19.3433C16.8992 46.1989 14.8132 44.0994 14.8629 41.6482C14.8649 40.1501 15.6286 38.7497 16.8516 37.949Z" fill="#193561"/>
<path d="M45.9181 22.5507C45.7649 22.3007 45.4607 22.25 45.2558 22.3515L43.1678 23.5507V21.9511C43.1678 21.7011 42.9649 21.4511 42.6587 21.4511C42.4041 21.4511 42.1496 21.6503 42.1496 21.9511V24.1503L40.9286 24.8495V23.2499C40.9286 22.9999 40.7257 22.7499 40.4195 22.7499C40.1649 22.7499 39.9104 22.9491 39.9104 23.2499V25.4491L39.095 25.8983L37.4146 24.9491L37.4166 23.9999L39.3516 22.9003C39.6061 22.75 39.6578 22.4511 39.5544 22.2499C39.4013 21.9999 39.097 21.9492 38.8922 22.0507L37.4663 22.8515L37.4683 21.5L39.4033 20.4004C39.6578 20.25 39.7095 19.9511 39.6061 19.75C39.453 19.5 39.1487 19.4492 38.9439 19.5508L37.518 20.3516V18C37.518 17.75 37.3152 17.5 37.0089 17.5C36.7544 17.5 36.4998 17.6992 36.4998 18V20.3496L35.074 19.5488C34.8194 19.3984 34.5132 19.498 34.4117 19.748C34.2586 19.998 34.36 20.2988 34.6146 20.3984L36.5495 21.498V22.8984L35.1237 22.0976C34.8691 21.9472 34.5629 22.0468 34.4614 22.2968C34.3083 22.5468 34.4097 22.8476 34.6643 22.9472L36.5992 24.0468V24.9472L34.9188 25.8964L34.1035 25.4472V23.248C34.1035 22.998 33.9006 22.748 33.5944 22.748C33.2881 22.748 33.0853 22.9472 33.0853 23.248V24.8476L31.8643 24.1484V21.9492C31.8643 21.6992 31.6614 21.4492 31.3552 21.4492C31.049 21.4492 30.8461 21.6484 30.8461 21.9492V23.5488L28.758 22.3496C28.5035 22.1992 28.1972 22.2988 28.0958 22.5488C27.9944 22.7988 28.0441 23.0996 28.2986 23.1992L30.3867 24.3984L28.9609 25.1992C28.7063 25.3496 28.6546 25.6485 28.758 25.8496C28.8594 26 29.0126 26.0996 29.1657 26.0996C29.2671 26.0996 29.3188 26.0996 29.4202 26.0489L31.3552 24.9493L32.5762 25.6485L31.1503 26.4493C30.8958 26.5997 30.8441 26.8985 30.9475 27.0997C31.0489 27.2501 31.202 27.3497 31.3552 27.3497C31.4566 27.3497 31.5083 27.3497 31.6097 27.2989L33.5447 26.1993L34.36 26.6485V28.5489L33.5466 29.0001L31.6117 27.9005C31.3571 27.7501 31.0509 27.8497 30.9495 28.0997C30.7963 28.3497 30.8978 28.6505 31.1523 28.7501L32.5782 29.5509L31.3572 30.2501L29.4222 29.1505C29.1677 29.0001 28.8614 29.0997 28.76 29.3497C28.6069 29.5997 28.7083 29.9005 28.9628 30.0001L30.3887 30.8009L28.2529 32.0001C27.9984 32.1505 27.9467 32.4493 28.0501 32.6505C28.1515 32.8009 28.3046 32.9005 28.4577 32.9005C28.5592 32.9005 28.6109 32.9005 28.7123 32.8497L30.8004 31.6505V33.2501C30.8004 33.5001 31.0032 33.7501 31.3095 33.7501C31.6157 33.7501 31.8185 33.5509 31.8185 33.2501V31.0509L33.0395 30.3517V31.9513C33.0395 32.2013 33.2424 32.4513 33.5486 32.4513C33.8549 32.4513 34.0577 32.2521 34.0577 31.9513V29.7521L34.8731 29.3029L36.5535 30.2521V31.1525L34.6185 32.2521C34.364 32.4025 34.3123 32.7013 34.4157 32.9025C34.5688 33.1525 34.8731 33.2033 35.0779 33.1017L36.5038 32.3009V33.7013L34.5688 34.8009C34.3143 34.9513 34.2626 35.2502 34.366 35.4513C34.5191 35.7013 34.8234 35.7521 35.0282 35.6506L36.4541 34.8498V37.1994C36.4541 37.4494 36.6569 37.6994 36.9632 37.6994C37.2177 37.6994 37.4723 37.5001 37.4723 37.1994V34.8498L38.8981 35.6506C38.9995 35.7013 39.0512 35.7013 39.1527 35.7013C39.3058 35.7013 39.5086 35.6017 39.5603 35.4513C39.7135 35.2013 39.612 34.9005 39.3575 34.8009L37.4225 33.7013V32.3009L38.8484 33.1017C38.9498 33.1525 39.0015 33.1525 39.103 33.1525C39.2561 33.1525 39.4589 33.0529 39.5106 32.9025C39.6637 32.6525 39.5623 32.3517 39.3078 32.2521L37.3728 31.1525V30.2521L39.0532 29.3029L39.8686 29.7521V31.9513C39.8686 32.2013 40.0714 32.4513 40.3777 32.4513C40.6322 32.4513 40.8868 32.2521 40.8868 31.9513V30.3517L42.1078 31.0509V33.2501C42.1078 33.5001 42.3106 33.7501 42.6169 33.7501C42.8714 33.7501 43.126 33.5509 43.126 33.2501V31.6505L45.214 32.8497C45.3155 32.9005 45.3672 32.9005 45.4686 32.9005C45.6217 32.9005 45.8246 32.8009 45.8763 32.6505C46.0294 32.4005 45.928 32.0997 45.6734 32.0001L43.5853 30.8009L45.0112 30.0001C45.2657 29.8497 45.3174 29.5509 45.214 29.3497C45.0609 29.0997 44.7567 29.0489 44.5518 29.1505L42.6169 30.2501L41.3959 29.5509L42.8217 28.7501C43.0763 28.5997 43.128 28.3009 43.0246 28.0997C42.8714 27.8497 42.5672 27.7989 42.3623 27.9005L40.4712 29.0001L39.6558 28.5508V26.6504L40.4712 26.2012L42.4061 27.3008C42.5075 27.3516 42.5592 27.3516 42.6607 27.3516C42.8138 27.3516 43.0166 27.252 43.0683 27.1016C43.2215 26.8516 43.12 26.5508 42.8655 26.4512L41.4396 25.6504L42.6606 24.9512L44.5956 26.0508C44.697 26.1016 44.7487 26.1016 44.8501 26.1016C45.0033 26.1016 45.2061 26.002 45.2578 25.8516C45.4109 25.6016 45.3095 25.3008 45.055 25.2012L43.6291 24.4004L45.7172 23.2012C45.9697 23.0996 46.0712 22.8007 45.9181 22.5507ZM38.6895 28.5507L37.0091 29.4999L35.3287 28.5507V26.6503L37.0091 25.7011L38.6895 26.6503V28.5507Z" fill="#193561"/>
</svg>
